<svg width="36" height="36" viewBox="0 0 36 36" fill="none" xmlns="http://www.w3.org/2000/svg">
<path d="M34.5 27C34.5 28.125 34.185 29.19 33.63 30.09C33.315 30.63 32.91 31.11 32.445 31.5C31.395 32.445 30.015 33 28.5 33C26.67 33 25.035 32.175 23.955 30.885C23.925 30.84 23.88 30.81 23.85 30.765C23.67 30.555 23.505 30.33 23.37 30.09C22.815 29.19 22.5 28.125 22.5 27C22.5 25.11 23.37 23.415 24.75 22.32C25.785 21.495 27.09 21 28.5 21C30 21 31.35 21.54 32.4 22.455C32.58 22.59 32.745 22.755 32.895 22.92C33.885 24 34.5 25.425 34.5 27Z" stroke="#FAFAFA" stroke-width="2.25" stroke-miterlimit="10" stroke-linecap="round" stroke-linejoin="round"/>
<path d="M30.735 26.97H26.265" stroke="#FAFAFA" stroke-width="2.25" stroke-miterlimit="10" stroke-linecap="round" stroke-linejoin="round"/>
<path d="M28.5 24.78V29.265" stroke="#FAFAFA" stroke-width="2.25" stroke-miterlimit="10" stroke-linecap="round" stroke-linejoin="round"/>
<path d="M4.75497 11.1599L18 18.8249L31.155 11.2049" stroke="#FAFAFA" stroke-width="2.25" stroke-linecap="round" stroke-linejoin="round"/>
<path d="M18 32.4149V18.8099" stroke="#FAFAFA" stroke-width="2.25" stroke-linecap="round" stroke-linejoin="round"/>
<path d="M32.415 13.755V22.2451C32.415 22.3201 32.415 22.38 32.4 22.455C31.35 21.54 30 21 28.5 21C27.09 21 25.785 21.495 24.75 22.32C23.37 23.415 22.5 25.11 22.5 27C22.5 28.125 22.815 29.19 23.37 30.09C23.505 30.33 23.67 30.555 23.85 30.765L21.105 32.2801C19.395 33.2401 16.605 33.2401 14.895 32.2801L6.88499 27.84C5.06999 26.835 3.58499 24.3151 3.58499 22.2451V13.755C3.58499 11.685 5.06999 9.16503 6.88499 8.16003L14.895 3.72C16.605 2.76 19.395 2.76 21.105 3.72L29.115 8.16003C30.93 9.16503 32.415 11.685 32.415 13.755Z" stroke="#FAFAFA" stroke-width="2.25" stroke-linecap="round" stroke-linejoin="round"/>
</svg>
