<svg width="40" height="40" viewBox="0 0 40 40" fill="none" xmlns="http://www.w3.org/2000/svg">
<path d="M16 33.3333H24C30.6667 33.3333 33.3333 30.6666 33.3333 24V16C33.3333 9.33329 30.6667 6.66663 24 6.66663H16C9.33332 6.66663 6.66666 9.33329 6.66666 16V24C6.66666 30.6666 9.33332 33.3333 16 33.3333Z" stroke="#FAFAFA" stroke-width="2.5" stroke-linecap="round" stroke-linejoin="round"/>
<path d="M17.5 28.3333H22.5C26.6667 28.3333 28.3333 26.6666 28.3333 22.5V17.5C28.3333 13.3333 26.6667 11.6666 22.5 11.6666H17.5C13.3333 11.6666 11.6667 13.3333 11.6667 17.5V22.5C11.6667 26.6666 13.3333 28.3333 17.5 28.3333Z" stroke="#FAFAFA" stroke-width="2.5" stroke-linecap="round" stroke-linejoin="round"/>
<path d="M13.35 6.66671V3.33337" stroke="#FAFAFA" stroke-width="2.5" stroke-linecap="round" stroke-linejoin="round"/>
<path d="M20 6.66671V3.33337" stroke="#FAFAFA" stroke-width="2.5" stroke-linecap="round" stroke-linejoin="round"/>
<path d="M26.6667 6.66671V3.33337" stroke="#FAFAFA" stroke-width="2.5" stroke-linecap="round" stroke-linejoin="round"/>
<path d="M33.3333 13.3334H36.6667" stroke="#FAFAFA" stroke-width="2.5" stroke-linecap="round" stroke-linejoin="round"/>
<path d="M33.3333 20H36.6667" stroke="#FAFAFA" stroke-width="2.5" stroke-linecap="round" stroke-linejoin="round"/>
<path d="M33.3333 26.6666H36.6667" stroke="#FAFAFA" stroke-width="2.5" stroke-linecap="round" stroke-linejoin="round"/>
<path d="M26.6667 33.3334V36.6667" stroke="#FAFAFA" stroke-width="2.5" stroke-linecap="round" stroke-linejoin="round"/>
<path d="M20.0167 33.3334V36.6667" stroke="#FAFAFA" stroke-width="2.5" stroke-linecap="round" stroke-linejoin="round"/>
<path d="M13.35 33.3334V36.6667" stroke="#FAFAFA" stroke-width="2.5" stroke-linecap="round" stroke-linejoin="round"/>
<path d="M3.33334 13.3334H6.66668" stroke="#FAFAFA" stroke-width="2.5" stroke-linecap="round" stroke-linejoin="round"/>
<path d="M3.33334 20H6.66668" stroke="#FAFAFA" stroke-width="2.5" stroke-linecap="round" stroke-linejoin="round"/>
<path d="M3.33334 26.6666H6.66668" stroke="#FAFAFA" stroke-width="2.5" stroke-linecap="round" stroke-linejoin="round"/>
</svg>
