<svg width="28" height="28" viewBox="0 0 28 28" fill="none" xmlns="http://www.w3.org/2000/svg">
<path d="M2.33325 10.5V7.58333C2.33325 4.67833 4.67825 2.33333 7.58325 2.33333H10.4999" stroke="#FAFAFA" stroke-width="1.75" stroke-linecap="round" stroke-linejoin="round"/>
<path d="M17.5 2.33333H20.4167C23.3217 2.33333 25.6667 4.67833 25.6667 7.58333V10.5" stroke="#FAFAFA" stroke-width="1.75" stroke-linecap="round" stroke-linejoin="round"/>
<path d="M25.6667 18.6667V20.4167C25.6667 23.3217 23.3217 25.6667 20.4167 25.6667H18.6667" stroke="#FAFAFA" stroke-width="1.75" stroke-linecap="round" stroke-linejoin="round"/>
<path d="M10.4999 25.6667H7.58325C4.67825 25.6667 2.33325 23.3217 2.33325 20.4167V17.5" stroke="#FAFAFA" stroke-width="1.75" stroke-linecap="round" stroke-linejoin="round"/>
<path d="M19.8334 11.0833V16.9167C19.8334 19.25 18.6667 20.4167 16.3334 20.4167H11.6667C9.33341 20.4167 8.16675 19.25 8.16675 16.9167V11.0833C8.16675 8.74999 9.33341 7.58333 11.6667 7.58333H16.3334C18.6667 7.58333 19.8334 8.74999 19.8334 11.0833Z" stroke="#FAFAFA" stroke-width="1.75" stroke-linecap="round" stroke-linejoin="round"/>
<path d="M22.1666 14H5.83325" stroke="#FAFAFA" stroke-width="1.75" stroke-linecap="round" stroke-linejoin="round"/>
</svg>
