
<svg width="246" height="66" viewBox="0 0 246 66" fill="none" xmlns="http://www.w3.org/2000/svg">
<path d="M78.208 27H84.736V19.288H87.2C92.864 19.288 96.096 16.696 96.096 11.896V11.768C96.096 6.904 93.184 4.12 86.912 4.12H78.208V27ZM84.736 14.808V9.048H86.656C88.704 9.048 89.856 9.848 89.856 11.8V11.928C89.856 13.816 88.736 14.808 86.624 14.808H84.736ZM105.178 27.384C110.234 27.384 113.146 25.24 113.658 21.464H108.282C108.058 22.584 107.258 23.448 105.37 23.448C103.322 23.448 102.042 22.168 101.882 19.96H113.658V18.456C113.658 12.44 109.722 9.816 105.146 9.816C100.09 9.816 96.09 13.208 96.09 18.584V18.84C96.09 24.312 99.93 27.384 105.178 27.384ZM101.946 16.728C102.234 14.712 103.418 13.592 105.146 13.592C107.002 13.592 107.994 14.712 108.09 16.728H101.946ZM122.991 33.208C128.975 33.208 132.271 30.584 132.271 25.592V10.264H126.543V12.632C125.583 10.936 124.015 9.816 121.359 9.816C117.423 9.816 114.255 12.952 114.255 17.88V18.136C114.255 23.288 117.455 26.168 121.359 26.168C123.855 26.168 125.679 24.696 126.543 23.096V25.656C126.543 27.736 125.519 29.176 122.991 29.176C120.911 29.176 120.175 28.216 119.919 27H114.223C114.671 30.808 117.295 33.208 122.991 33.208ZM123.375 21.944C121.327 21.944 120.111 20.472 120.111 18.168V17.912C120.111 15.608 121.263 14.104 123.407 14.104C125.519 14.104 126.703 15.576 126.703 17.88V18.104C126.703 20.472 125.423 21.944 123.375 21.944ZM139.395 27.384C142.083 27.384 143.555 26.264 144.355 25.048V27H149.923V16.152C149.923 11.704 146.979 9.816 142.371 9.816C137.795 9.816 134.627 11.8 134.371 15.832H139.747C139.875 14.776 140.451 13.848 142.019 13.848C143.843 13.848 144.227 14.904 144.227 16.504V16.888H142.627C137.059 16.888 133.731 18.424 133.731 22.36C133.731 25.912 136.387 27.384 139.395 27.384ZM141.379 23.512C140.035 23.512 139.395 22.904 139.395 21.944C139.395 20.568 140.419 20.12 142.723 20.12H144.227V21.144C144.227 22.584 143.011 23.512 141.379 23.512ZM158.791 27.384C163.431 27.384 166.375 25.592 166.375 21.624C166.375 18.04 164.135 16.824 159.495 16.248C157.447 15.992 156.679 15.672 156.679 14.872C156.679 14.104 157.319 13.56 158.567 13.56C159.879 13.56 160.487 14.104 160.711 15.224H165.895C165.511 11.224 162.631 9.816 158.503 9.816C154.631 9.816 151.335 11.608 151.335 15.32C151.335 18.808 153.223 20.12 157.703 20.696C160.007 21.016 160.807 21.4 160.807 22.2C160.807 23.032 160.167 23.576 158.759 23.576C157.127 23.576 156.583 22.904 156.391 21.688H151.111C151.239 25.4 154.023 27.384 158.791 27.384ZM176.184 23.128C173.976 23.128 172.856 21.56 172.856 18.68V18.424C172.856 15.608 174.04 14.104 176.184 14.104C178.36 14.104 179.48 15.672 179.48 18.488V18.744C179.48 21.528 178.328 23.128 176.184 23.128ZM176.152 27.384C181.304 27.384 185.304 24.12 185.304 18.68V18.424C185.304 13.112 181.336 9.816 176.184 9.816C171 9.816 167 13.208 167 18.584V18.84C167 24.248 171 27.384 176.152 27.384ZM81.76 60H88.16L91.712 45.472L95.232 60H102.08L107.424 37.12H101.344L98.24 51.52L94.912 37.12H89.088L86.016 51.392L83.072 37.12H76.448L81.76 60ZM111.878 60.384C114.566 60.384 116.038 59.264 116.838 58.048V60H122.406V49.152C122.406 44.704 119.462 42.816 114.854 42.816C110.278 42.816 107.11 44.8 106.854 48.832H112.23C112.358 47.776 112.934 46.848 114.502 46.848C116.326 46.848 116.71 47.904 116.71 49.504V49.888H115.11C109.542 49.888 106.214 51.424 106.214 55.36C106.214 58.912 108.87 60.384 111.878 60.384ZM113.862 56.512C112.518 56.512 111.878 55.904 111.878 54.944C111.878 53.568 112.902 53.12 115.206 53.12H116.71V54.144C116.71 55.584 115.494 56.512 113.862 56.512ZM124.714 60H130.442V52.064C130.442 49.376 132.362 48.288 135.85 48.384V43.04C133.258 43.008 131.498 44.096 130.442 46.592V43.264H124.714V60ZM145.477 60.384C150.533 60.384 153.445 58.24 153.957 54.464H148.581C148.357 55.584 147.557 56.448 145.669 56.448C143.621 56.448 142.341 55.168 142.181 52.96H153.957V51.456C153.957 45.44 150.021 42.816 145.445 42.816C140.389 42.816 136.389 46.208 136.389 51.584V51.84C136.389 57.312 140.229 60.384 145.477 60.384ZM142.245 49.728C142.533 47.712 143.717 46.592 145.445 46.592C147.301 46.592 148.293 47.712 148.389 49.728H142.245ZM155.45 60H161.178V50.624C161.178 48.48 162.33 47.456 164.026 47.456C165.69 47.456 166.426 48.384 166.426 50.272V60H172.154V49.12C172.154 44.832 169.914 42.816 166.682 42.816C163.898 42.816 162.074 44.224 161.178 45.952V35.904H155.45V60ZM182.746 56.128C180.538 56.128 179.418 54.56 179.418 51.68V51.424C179.418 48.608 180.602 47.104 182.746 47.104C184.922 47.104 186.042 48.672 186.042 51.488V51.744C186.042 54.528 184.89 56.128 182.746 56.128ZM182.714 60.384C187.866 60.384 191.866 57.12 191.866 51.68V51.424C191.866 46.112 187.898 42.816 182.746 42.816C177.562 42.816 173.562 46.208 173.562 51.584V51.84C173.562 57.248 177.562 60.384 182.714 60.384ZM198.909 60.384C201.693 60.384 203.325 59.136 204.221 57.408V60H209.949V43.264H204.221V52.896C204.221 55.04 203.101 56.064 201.373 56.064C199.741 56.064 199.005 55.136 199.005 53.248V43.264H193.277V54.176C193.277 58.4 195.677 60.384 198.909 60.384ZM218.942 60.384C223.582 60.384 226.526 58.592 226.526 54.624C226.526 51.04 224.286 49.824 219.646 49.248C217.598 48.992 216.83 48.672 216.83 47.872C216.83 47.104 217.47 46.56 218.718 46.56C220.03 46.56 220.638 47.104 220.862 48.224H226.046C225.662 44.224 222.782 42.816 218.654 42.816C214.782 42.816 211.486 44.608 211.486 48.32C211.486 51.808 213.374 53.12 217.854 53.696C220.158 54.016 220.958 54.4 220.958 55.2C220.958 56.032 220.318 56.576 218.91 56.576C217.278 56.576 216.734 55.904 216.542 54.688H211.262C211.39 58.4 214.174 60.384 218.942 60.384ZM236.239 60.384C241.295 60.384 244.207 58.24 244.719 54.464H239.343C239.119 55.584 238.319 56.448 236.431 56.448C234.383 56.448 233.103 55.168 232.943 52.96H244.719V51.456C244.719 45.44 240.783 42.816 236.207 42.816C231.151 42.816 227.151 46.208 227.151 51.584V51.84C227.151 57.312 230.991 60.384 236.239 60.384ZM233.007 49.728C233.295 47.712 234.479 46.592 236.207 46.592C238.063 46.592 239.055 47.712 239.151 49.728H233.007Z" fill="#101010"/>
<path d="M6.86835 23.12L26 34.1917L45.0016 23.185" stroke="#101010" stroke-width="3.25" stroke-linecap="round" stroke-linejoin="round"/>
<path d="M26 53.8216V34.17" stroke="#101010" stroke-width="3.25" stroke-linecap="round" stroke-linejoin="round"/>
<path d="M21.515 12.3733L9.94497 18.8084C7.32331 20.2601 5.17834 23.9 5.17834 26.89V39.1318C5.17834 42.1218 7.32331 45.7617 9.94497 47.2134L21.515 53.6484C23.985 55.0134 28.0366 55.0134 30.5066 53.6484L42.0767 47.2134C44.6983 45.7617 46.8433 42.1218 46.8433 39.1318V26.89C46.8433 23.9 44.6983 20.2601 42.0767 18.8084L30.5066 12.3733C28.015 10.9867 23.985 10.9867 21.515 12.3733Z" stroke="#101010" stroke-width="3.25" stroke-linecap="round" stroke-linejoin="round"/>
<path d="M36.8333 35.6866V27.7567L16.2717 15.8833" stroke="#101010" stroke-width="3.25" stroke-linecap="round" stroke-linejoin="round"/>
</svg>
