<svg width="40" height="40" viewBox="0 0 40 40" fill="none" xmlns="http://www.w3.org/2000/svg">
<path d="M38.3333 30C38.3333 31.25 37.9833 32.4334 37.3667 33.4334C37.0167 34.0334 36.5667 34.5667 36.05 35C34.8833 36.05 33.35 36.6667 31.6667 36.6667C29.6333 36.6667 27.8167 35.7501 26.6167 34.3168C26.5833 34.2668 26.5333 34.2334 26.5 34.1834C26.3 33.9501 26.1167 33.7 25.9667 33.4334C25.35 32.4334 25 31.25 25 30C25 27.9 25.9667 26.0167 27.5 24.8C28.65 23.8834 30.1 23.3334 31.6667 23.3334C33.3333 23.3334 34.8333 23.9333 36 24.95C36.2 25.1 36.3833 25.2834 36.55 25.4668C37.65 26.6668 38.3333 28.25 38.3333 30Z" stroke="#FAFAFA" stroke-width="2.5" stroke-miterlimit="10" stroke-linecap="round" stroke-linejoin="round"/>
<path d="M34.15 29.9667H29.1833" stroke="#FAFAFA" stroke-width="2.5" stroke-miterlimit="10" stroke-linecap="round" stroke-linejoin="round"/>
<path d="M31.6667 27.5333V32.5166" stroke="#FAFAFA" stroke-width="2.5" stroke-miterlimit="10" stroke-linecap="round" stroke-linejoin="round"/>
<path d="M5.28342 12.3999L20.0001 20.9165L34.6168 12.4498" stroke="#FAFAFA" stroke-width="2.5" stroke-linecap="round" stroke-linejoin="round"/>
<path d="M20.0001 36.0166V20.8999" stroke="#FAFAFA" stroke-width="2.5" stroke-linecap="round" stroke-linejoin="round"/>
<path d="M36.0167 15.2834V24.7168C36.0167 24.8001 36.0167 24.8667 36 24.95C34.8334 23.9334 33.3334 23.3334 31.6667 23.3334C30.1 23.3334 28.65 23.8834 27.5 24.8001C25.9667 26.0168 25 27.9001 25 30.0001C25 31.2501 25.35 32.4334 25.9667 33.4334C26.1167 33.7001 26.3 33.9501 26.5 34.1834L23.45 35.8668C21.55 36.9334 18.45 36.9334 16.55 35.8668L7.65001 30.9334C5.63335 29.8167 3.98335 27.0168 3.98335 24.7168V15.2834C3.98335 12.9834 5.63335 10.1834 7.65001 9.06674L16.55 4.13337C18.45 3.06671 21.55 3.06671 23.45 4.13337L32.35 9.06674C34.3667 10.1834 36.0167 12.9834 36.0167 15.2834Z" stroke="#FAFAFA" stroke-width="2.5" stroke-linecap="round" stroke-linejoin="round"/>
</svg>
