<svg width="41" height="40" viewBox="0 0 41 40" fill="none" xmlns="http://www.w3.org/2000/svg">
<path d="M16 33.3333H24C30.6667 33.3333 33.3333 30.6666 33.3333 24V16C33.3333 9.33329 30.6667 6.66663 24 6.66663H16C9.33332 6.66663 6.66666 9.33329 6.66666 16V24C6.66666 30.6666 9.33332 33.3333 16 33.3333Z" stroke="#FAFAFA" stroke-width="2.5" stroke-linecap="round" stroke-linejoin="round"/>
<path d="M17.5 28.3333H22.5C26.6667 28.3333 28.3333 26.6666 28.3333 22.5V17.5C28.3333 13.3333 26.6667 11.6666 22.5 11.6666H17.5C13.3333 11.6666 11.6667 13.3333 11.6667 17.5V22.5C11.6667 26.6666 13.3333 28.3333 17.5 28.3333Z" stroke="#FAFAFA" stroke-width="2.5" stroke-linecap="round" stroke-linejoin="round"/>
<path d="M13.35 6.66671V3.33337" stroke="#FAFAFA" stroke-width="2.5" stroke-linecap="round" stroke-linejoin="round"/>
<path d="M20 6.66671V3.33337" stroke="#FAFAFA" stroke-width="2.5" stroke-linecap="round" stroke-linejoin="round"/>
<path d="M26.6667 6.66671V3.33337" stroke="#FAFAFA" stroke-width="2.5" stroke-linecap="round" stroke-linejoin="round"/>
<path d="M33.3333 13.3334H36.6666" stroke="#FAFAFA" stroke-width="2.5" stroke-linecap="round" stroke-linejoin="round"/>
<path d="M33.3333 20H36.6666" stroke="#FAFAFA" stroke-width="2.5" stroke-linecap="round" stroke-linejoin="round"/>
<path d="M33.3333 26.6666H36.6666" stroke="#FAFAFA" stroke-width="2.5" stroke-linecap="round" stroke-linejoin="round"/>
<path d="M26.6667 33.3334V36.6667" stroke="#FAFAFA" stroke-width="2.5" stroke-linecap="round" stroke-linejoin="round"/>
<path d="M20.0167 33.3334V36.6667" stroke="#FAFAFA" stroke-width="2.5" stroke-linecap="round" stroke-linejoin="round"/>
<path d="M13.35 33.3334V36.6667" stroke="#FAFAFA" stroke-width="2.5" stroke-linecap="round" stroke-linejoin="round"/>
<path d="M3.33334 13.3334H6.66668" stroke="#FAFAFA" stroke-width="2.5" stroke-linecap="round" stroke-linejoin="round"/>
<path d="M3.33334 20H6.66668" stroke="#FAFAFA" stroke-width="2.5" stroke-linecap="round" stroke-linejoin="round"/>
<path d="M3.33334 26.6666H6.66668" stroke="#FAFAFA" stroke-width="2.5" stroke-linecap="round" stroke-linejoin="round"/>
<path d="M39.3333 29.6667C39.3333 30.9167 38.9833 32.1 38.3667 33.1C38.0167 33.7 37.5667 34.2333 37.05 34.6667C35.8833 35.7167 34.35 36.3333 32.6667 36.3333C30.6333 36.3333 28.8167 35.4167 27.6167 33.9834C27.5833 33.9334 27.5333 33.9 27.5 33.85C27.3 33.6167 27.1167 33.3667 26.9667 33.1C26.35 32.1 26 30.9167 26 29.6667C26 27.5667 26.9667 25.6833 28.5 24.4667C29.65 23.55 31.1 23 32.6667 23C34.3333 23 35.8333 23.6 37 24.6166C37.2 24.7666 37.3833 24.95 37.55 25.1334C38.65 26.3334 39.3333 27.9167 39.3333 29.6667Z" fill="#3B82F6" stroke="#FAFAFA" stroke-width="2.5" stroke-miterlimit="10" stroke-linecap="round" stroke-linejoin="round"/>
<path d="M35.15 29.6333H30.1833" stroke="#FAFAFA" stroke-width="2.5" stroke-miterlimit="10" stroke-linecap="round" stroke-linejoin="round"/>
<path d="M32.6667 27.2V32.1833" stroke="#FAFAFA" stroke-width="2.5" stroke-miterlimit="10" stroke-linecap="round" stroke-linejoin="round"/>
</svg>
